<svg width="199" height="39" viewBox="0 0 199 39" fill="none" xmlns="http://www.w3.org/2000/svg">
<path d="M6 38.4506V0" stroke="black" stroke-width="10.1186"/>
<path d="M47.7393 37.4387V0" stroke="black" stroke-width="10.1186"/>
<path d="M52.7988 5.05969C52.7988 5.05969 76.5775 5.05969 91.7553 5.05969C95.3513 5.05969 100.356 5.05969 100.356 8.34823C100.356 15.5947 100.356 21.0456 100.356 28.3322C100.356 29.6937 100.356 31.1194 100.356 32.6328C98.5244 32.6328 96.8498 32.6328 95.2968 32.6327C84.4342 32.6326 79.5275 32.6327 68.4826 32.6328C67.2178 32.6327 66.2059 32.6327 64.9411 32.6328C64.9411 31.1916 64.9411 29.7429 64.9411 28.3322C64.9411 21.5715 64.9411 15.6842 64.9411 15.6842" stroke="black" stroke-width="10.1186"/>
<path d="M121.352 31.3675L105.668 0.505859H117.051L127.17 19.4782L121.352 31.3675Z" fill="black"/>
<path d="M143.613 0.505859L125.146 37.6916H137.036L150.696 9.35961H180.292L155.502 30.6086V37.6916H198V28.5849H173.462L198 7.84183V0.505859H143.613Z" fill="black"/>
<path d="M121.352 31.3675L105.668 0.505859H117.051L127.17 19.4782L121.352 31.3675Z" stroke="black" stroke-width="1.01186"/>
<path d="M143.613 0.505859L125.146 37.6916H137.036L150.696 9.35961H180.292L155.502 30.6086V37.6916H198V28.5849H173.462L198 7.84183V0.505859H143.613Z" stroke="black" stroke-width="1.01186"/>
<path d="M26.7434 26.5612L13.5892 0.505859H11.0596V19.4782L20.6722 37.4387H32.8145L42.1742 19.4782V0.505859H39.8975L26.7434 26.5612Z" fill="black" stroke="black" stroke-width="1.01186"/>
</svg>
